<svg width="20" height="20" viewBox="0 0 20 20" fill="none" xmlns="http://www.w3.org/2000/svg">
<path d="M8.82069 0.521027C9.45363 -0.173676 10.5469 -0.173675 11.1798 0.521028L11.542 0.918578C11.9619 1.37943 12.6117 1.55354 13.2057 1.36438L13.7182 1.20119C14.6137 0.91603 15.5605 1.46265 15.7613 2.38075L15.8762 2.90614C16.0094 3.51519 16.4851 3.99088 17.0941 4.12408L17.6195 4.23899C18.5376 4.43978 19.0842 5.38655 18.7991 6.28204L18.6359 6.7945C18.4467 7.38854 18.6208 8.03836 19.0817 8.45824L19.4792 8.82044C20.1739 9.45338 20.1739 10.5466 19.4792 11.1796L19.0817 11.5418C18.6208 11.9616 18.4467 12.6115 18.6359 13.2055L18.7991 13.718C19.0842 14.6135 18.5376 15.5602 17.6195 15.761L17.0941 15.8759C16.4851 16.0091 16.0094 16.4848 15.8762 17.0939L15.7613 17.6192C15.5605 18.5374 14.6137 19.084 13.7182 18.7988L13.2057 18.6356C12.6117 18.4465 11.9619 18.6206 11.542 19.0814L11.1798 19.479C10.5469 20.1737 9.45363 20.1737 8.82069 19.479L8.45848 19.0814C8.0386 18.6206 7.38879 18.4465 6.79474 18.6356L6.28228 18.7988C5.38679 19.084 4.44002 18.5374 4.23923 17.6193L4.12433 17.0939C3.99113 16.4848 3.51543 16.0091 2.90638 15.8759L2.38099 15.761C1.46289 15.5602 0.916275 14.6135 1.20143 13.718L1.36462 13.2055C1.55379 12.6115 1.37967 11.9616 0.918821 11.5418L0.521271 11.1796C-0.173432 10.5466 -0.173431 9.45338 0.521272 8.82044L0.918822 8.45823C1.37967 8.03836 1.55379 7.38854 1.36462 6.7945L1.20143 6.28204C0.916274 5.38654 1.46289 4.43978 2.38099 4.23899L2.90638 4.12408C3.51543 3.99088 3.99113 3.51518 4.12433 2.90614L4.23923 2.38075C4.44002 1.46265 5.38679 0.916031 6.28229 1.20119L6.79474 1.36438C7.38879 1.55354 8.0386 1.37943 8.45848 0.918577L8.82069 0.521027Z" fill="#FF4774"/>
<path d="M6.6591 7.46423L5.01278 9.11054L8.8637 12.9615L14.3456 7.47955L12.38 5.51397L8.54444 9.34957L6.6591 7.46423Z" fill="white"/>
<path opacity="0.5" d="M11.2499 15.5492L9.60447 13.7022L11.2504 12.0563L13.1373 13.9433L11.2499 15.5492Z" fill="white"/>
</svg>
